# AST/ASF file generated using VICON BodyLanguage
# -----------------------------------------------
:version 1.10
:name VICON
:units
  mass 1.0
  length 0.45
  angle deg
:documentation
   .ast/.asf automatically generated from VICON data using
   VICON BodyBuilder and BodyLanguage model FoxedUp or BRILLIANT.MOD
:root
   order TX TY TZ RX RY RZ
   axis XYZ
   position 0 0 0  
   orientation 0 0 0 
:bonedata
  begin
     id 1 
     name lhipjoint
     direction 0.630082 -0.636569 0.44472 
     length 2.82754 
     axis 0 0 0  XYZ
  end
  begin
     id 2 
     name lfemur
     direction 0.34202 -0.939693 0  
     length 7.26371  
     axis 0 0 20  XYZ
    dof rx ry rz
    limits (-160.0 20.0)
           (-70.0 70.0)
           (-60.0 70.0)
  end
  begin
     id 3 
     name ltibia
     direction 0.34202 -0.939693 0   
     length 7.88616   
     axis 0 0 20   XYZ
    dof rx
    limits (-10.0 170.0)
  end
  begin
     id 4 
     name lfoot
     direction 0.0603448 -0.165796 0.984312   
     length 1.77861   
     axis -90 7.62852e-016 20   XYZ
    dof rx rz
    limits (-45.0 90.0)
           (-70.0 20.0)
  end
  begin
     id 5 
     name ltoes
     direction 1.53577e-011 -4.21876e-011 1   
     length 0.902235   
     axis -90 7.62852e-016 20   XYZ
    dof rx
    limits (-90.0 20.0)
  end
  begin
     id 6 
     name rhipjoint
     direction -0.656778 -0.61817 0.431866   
     length 2.9117  
     axis 0 0 0  XYZ 
  end
  begin
     id 7 
     name rfemur
     direction -0.34202 -0.939693 0   
     length 6.81603   
     axis 0 0 -20   XYZ
    dof rx ry rz
    limits (-160.0 20.0)
           (-70.0 70.0)
           (-70.0 60.0)
  end
  begin
     id 8 
     name rtibia
     direction -0.34202 -0.939693 0   
     length 8.05997   
     axis 0 0 -20   XYZ
    dof rx
    limits (-10.0 170.0)
 end
 begin
     id 9 
     name rfoot
     direction -0.0862404 -0.236944 0.967688   
     length 1.84899  
     axis -90 -7.62852e-016 -20   XYZ
    dof rx rz
    limits (-45.0 90.0)
           (-20.0 70.0)
  end
  begin
     id 10 
     name rtoes
     direction -1.53561e-011 -4.21798e-011 1   
     length 0.931579   
     axis -90 -7.62852e-016 -20   XYZ
    dof rx
    limits (-90.0 20.0)
  end
  begin
     id 11 
     name lowerback
     direction -0.0110203 0.991769 -0.127564   
     length 2.05686   
     axis 0 0 0   XYZ
    dof rx ry rz
    limits (-20.0 45.0)
           (-30.0 30.0)
           (-30.0 30.0)
  end
  begin
     id 12 
     name upperback
     direction 0.0109719 0.99993 -0.00432479   
     length 2.06234   
     axis 0 0 0   XYZ
    dof rx ry rz
    limits (-20.0 45.0)
           (-30.0 30.0)
           (-30.0 30.0)
  end
  begin
     id 13 
     name thorax
     direction 0.0173308 0.998351 0.0547306   
     length 2.09856   
     axis 0 0 0   XYZ
    dof rx ry rz
    limits (-20.0 45.0)
           (-30.0 30.0)
           (-30.0 30.0)
  end
  begin
     id 14 
     name lowerneck
     direction -0.0311736 0.989033 0.144366   
     length 1.98151   
     axis 0 0 0   XYZ
    dof rx ry rz
    limits (-20.0 45.0)
           (-30.0 30.0)
           (-30.0 30.0)
  end
  begin
     id 15 
     name upperneck
     direction 0.0421057 0.975772 -0.214698   
     length 2.01457   
     axis 0 0 0   XYZ
    dof rx ry rz
    limits (-20.0 45.0)
           (-30.0 30.0)
           (-30.0 30.0)
  end
  begin
     id 16
     name head
     direction 0.0136911 0.995958 -0.0887718  
     length 2.03562  
     axis 0 0 0   XYZ
    dof rx ry rz
    limits (-20.0 45.0)
           (-30.0 30.0)
           (-30.0 30.0)
  end
  begin
     id 17 
     name lclavicle
     direction 0.915335 0.396201 0.0720134  
     length 4.16217  
     axis 0 0 0   XYZ
    dof ry rz
    limits (-20.0 10.0)
           (0.0 20.0)
  end
  begin
     id 18 
     name lhumerus
     direction 1 -4.48965e-011 6.383e-018   
     length 4.93042   
     axis -180 -30 -90   XYZ
    dof rx ry rz
    limits (-60.0 90.0)
           (-90.0 90.0)
           (-90.0 90.0)
  end
  begin
     id 19
     name lradius
     direction 1 -4.48972e-011 8.8689e-027   
     length 3.68177   
     axis -180 -30 -90   XYZ
    dof rx
    limits (-10.0 170.0)
  end
  begin
     id 20
     name lwrist
     direction 1 -4.48953e-011 1.17971e-026   
     length 1.84089   
     axis -7.69454e-015 90 90   XYZ
    dof ry
    limits (-180.0 0.0)
 end
  begin
     id 21 
     name lhand
     direction 1 -4.49027e-011 2.35802e-026   
     length 0.721479   
     axis -1.50533e-014 90 90   XYZ
    dof rx rz
    limits (-90.0 90.0)
           (-45.0 45.0)
  end
  begin
     id 22 
     name lfingers
     direction 1 -4.48915e-011 4.72027e-026   
     length 0.581675   
     axis -3.01059e-014 90 90   XYZ
    dof rx
    limits (0.0 90.0)
  end
  begin
     id 23
     name lthumb
     direction 0.707107 -6.34948e-011 0.707107   
     length 0.835172   
     axis -90 45 -5.12164e-014   XYZ
    dof rx rz
    limits (-45.0 45.0)
           (-45.0 45.0)
  end
  begin
     id 24 
     name rclavicle
     direction -0.882781 0.469197 0.0234974   
     length 3.95647  
     axis 0 0 0   XYZ 
    dof ry rz
    limits (-10.0 20.0)
           (-20.0 0.0)
  end
  begin
     id 25 
     name rhumerus
     direction -1 -4.48965e-011 -1.54906e-018  
     length 5.07905   
     axis -180 30 90   XYZ
    dof rx ry rz
    limits (-90.0 60.0)
           (-90.0 90.0)
           (-90.0 90.0)
  end
  begin
     id 26 
     name rradius
     direction -1 -4.48972e-011 5.47489e-027   
     length 3.54394   
     axis -180 30 90   XYZ
    dof rx
    limits (-10.0 170.0)
  end
  begin
     id 27 
     name rwrist
     direction -1 -4.48955e-011 1.17969e-026   
     length 1.77197   
     axis -7.69454e-015 -90 -90   XYZ
    dof ry
    limits (-180.0 0.0)
  end
  begin
     id 28
     name rhand
     direction -1 -4.48982e-011 2.35888e-026   
     length 0.681156   
     axis -1.50533e-014 -90 -90   XYZ
    dof rx rz
    limits (-90.0 90.0)
           (-45.0 45.0)
  end
  begin
     id 29
     name rfingers
     direction -1 -4.48955e-011 4.71877e-026   
     length 0.549165   
     axis -3.01059e-014 -90 -90   XYZ
    dof rx
    limits (0.0 90.0)
  end
  begin
     id 30
     name rthumb
     direction -0.707107 -6.3491e-011 0.707107   
     length 0.788495   
     axis -90 -45 5.12164e-014   XYZ
    dof rx rz
    limits (-45.0 45.0)
           (-45.0 45.0)
  end
:hierarchy
  begin
    root lhipjoint rhipjoint lowerback
    lhipjoint lfemur
    lfemur ltibia
    ltibia lfoot
    lfoot ltoes
    rhipjoint rfemur
    rfemur rtibia
    rtibia rfoot
    rfoot rtoes
    lowerback upperback
    upperback thorax
    thorax lowerneck lclavicle rclavicle
    lowerneck upperneck
    upperneck head
    lclavicle lhumerus
    lhumerus lradius
    lradius lwrist
    lwrist lhand lthumb
    lhand lfingers
    rclavicle rhumerus
    rhumerus rradius
    rradius rwrist
    rwrist rhand rthumb
    rhand rfingers
  end

#!OML:ASF H:\Bending\Project 1\Capture day 1\Session 1\Subject.ASF
:FULLY-SPECIFIED
:DEGREES
392
root -9.38259 18.0414 -17.0211 7.89567 94.1377 2.59674
lowerback 7.80385 0.623242 -1.33132
upperback -1.439 0.805591 1.69714
thorax -5.92963 0.477857 2.41846
lowerneck -22.7786 -4.36679 -4.86743
upperneck 35.36 -3.67531 0.112833
head 16.7439 -1.86054 0.220751
rclavicle 4.72114e-015 -4.37326e-015
rhumerus -51.1688 -15.9764 -57.2205
rradius 27.8818
rwrist 17.6687
rhand -19.2835 -24.3602
rfingers 7.12502
rthumb 7.03154 -54.2234
lclavicle 4.72114e-015 -4.37326e-015
lhumerus -50.8765 7.42448 81.3519
lradius 37.3972
lwrist 25.6019
lhand -32.1376 6.90435
lfingers 7.12502
lthumb -5.38154 36.816
rfemur 3.54032 -11.1164 12.8111
rtibia 5.56597e-015
rfoot -7.58583 -11.86
rtoes 3.82161
lfemur -11.9985 -14.9705 -15.9635
ltibia 23.221
lfoot -21.6625 16.2007
ltoes -30.0785
393
root -9.45338 18.0461 -17.059 8.78112 94.3458 3.54207
lowerback 7.98818 0.585131 -1.23649
upperback -1.4372 0.763252 1.69319
thorax -6.02901 0.454602 2.36555
lowerneck -22.7245 -4.42889 -4.91269
upperneck 35.3716 -3.79626 0.225256
head 16.7452 -1.89849 0.254058
rclavicle 1.47101e-014 -1.59028e-015
rhumerus -50.9431 -15.9118 -57.7597
rradius 28.0087
rwrist 17.5674
rhand -19.0969 -23.5718
rfingers 7.12502
rthumb 7.21164 -53.4289
lclavicle 1.47101e-014 -1.59028e-015
lhumerus -50.0442 6.53752 82.4833
lradius 39.2507
lwrist 26.6466
lhand -32.3534 6.76276
lfingers 7.12502
lthumb -5.5899 36.669
rfemur 3.38523 -11.3065 12.777
rtibia -1.59028e-014
rfoot -7.12531 -11.9451
rtoes 2.76094
lfemur -12.3781 -14.4597 -15.9453
ltibia 23.4377
lfoot -21.2911 15.5701
ltoes -30.2265
394
root -9.52465 18.0514 -17.0971 9.84794 94.5114 4.68071
lowerback 8.18436 0.540824 -1.13797
upperback -1.43059 0.713807 1.69539
thorax -6.12994 0.427782 2.31813
lowerneck -22.684 -4.47338 -4.94594
upperneck 35.3817 -3.8923 0.328783
head 16.7478 -1.92628 0.286285
rclavicle -1.72943e-014 2.66371e-014
rhumerus -50.7041 -15.871 -58.2751
rradius 28.1102
rwrist 17.4403
rhand -19.0029 -22.5065
rfingers 7.12502
rthumb 7.3024 -52.3605
lclavicle -1.72943e-014 2.66371e-014
lhumerus -49.3072 5.60288 83.5739
lradius 41.086
lwrist 27.7094
lhand -32.5751 6.69286
lfingers 7.12502
lthumb -5.804 36.5934
rfemur 3.22429 -11.4493 12.7598
rtibia 2.46493e-014
rfoot -6.59512 -12.0327
rtoes 1.43922
lfemur -12.7408 -13.8806 -15.9189
ltibia 23.6563
lfoot -20.8922 14.892
ltoes -30.2875
395
root -9.59618 18.0565 -17.1347 10.843 94.6222 5.76711
lowerback 8.3949 0.490548 -1.06521
upperback -1.41132 0.65412 1.69992
thorax -6.22575 0.396692 2.28935
lowerneck -22.6684 -4.49862 -4.97702
upperneck 35.3863 -3.95679 0.423458
head 16.7523 -1.9428 0.320241
rclavicle -1.05356e-014 -2.70347e-014
rhumerus -50.4309 -15.7614 -58.8549
rradius 28.2312
rwrist 17.2088
rhand -18.9338 -21.4497
rfingers 7.12502
rthumb 7.36905 -51.3013
lclavicle -1.05356e-014 -2.70347e-014
lhumerus -48.6305 4.79027 84.5377
lradius 42.8334
lwrist 28.634
lhand -32.6945 6.71889
lfingers 7.12502
lthumb -5.91922 36.6162
rfemur 3.06391 -11.5348 12.729
rtibia 6.36111e-015
rfoot -6.05512 -12.093
rtoes 0.12551
lfemur -13.0606 -13.2767 -15.911
ltibia 23.8517
lfoot -20.5017 14.2251
ltoes -30.1748
396
root -9.66806 18.0611 -17.1715 11.6757 94.6758 6.712
lowerback 8.62135 0.432328 -1.03484
upperback -1.37598 0.579529 1.70642
thorax -6.31361 0.359639 2.28896
lowerneck -22.6839 -4.50244 -5.00266
upperneck 35.3811 -3.98386 0.498916
head 16.7573 -1.94696 0.351847
rclavicle 4.32357e-015 -3.97569e-015
rhumerus -50.1095 -15.5281 -59.5528
rradius 28.4107
rwrist 16.8719
rhand -18.816 -20.6944
rfingers 7.12502
rthumb 7.48279 -50.5421
lclavicle 4.32357e-015 -3.97569e-015
lhumerus -47.9643 4.23899 85.3281
lradius 44.4165
lwrist 29.2987
lhand -32.6552 6.82338
lfingers 7.12502
lthumb -5.88131 36.7218
rfemur 2.90719 -11.5627 12.6685
rtibia 1.59028e-015
rfoot -5.58003 -12.1053
rtoes -0.810616
lfemur -13.3252 -12.6996 -15.932
ltibia 24.008
lfoot -20.1594 13.6256
ltoes -29.8436
397
root -9.74045 18.0652 -17.2073 12.4286 94.6785 7.59139
lowerback 8.86127 0.364748 -1.04846
upperback -1.32733 0.488004 1.71858
thorax -6.39477 0.315877 2.3222
lowerneck -22.7275 -4.48388 -5.00873
upperneck 35.3627 -3.97187 0.538896
head 16.7591 -1.93864 0.371876
rclavicle -3.18055e-015 1.59028e-015
rhumerus -49.7409 -15.1761 -60.3615
rradius 28.6637
rwrist 16.4937
rhand -18.6148 -20.3976
rfingers 7.12502
rthumb 7.67695 -50.2382
lclavicle -3.18055e-015 1.59028e-015
lhumerus -47.277 3.98434 85.9572
lradius 45.7907
lwrist 29.6622
lhand -32.4747 6.95215
lfingers 7.12502
lthumb -5.70701 36.8553
rfemur 2.75259 -11.5396 12.5847
rtibia -6.36111e-015
rfoot -5.21637 -12.0698
rtoes -1.10141
lfemur -13.5385 -12.1923 -15.9721
ltibia 24.1213
lfoot -19.8933 13.1278
ltoes -29.3139
398
root -9.81338 18.0692 -17.2421 13.3146 94.6383 8.60584
lowerback 9.10728 0.290448 -1.09618
upperback -1.2732 0.3844 1.74179
thorax -6.47324 0.267713 2.3887
lowerneck -22.7883 -4.44524 -4.98157
upperneck 35.3306 -3.92637 0.533225
head 16.7543 -1.91964 0.372565
rclavicle 5.96354e-016 -4.77083e-015
rhumerus -49.3403 -14.7575 -61.2239
rradius 28.9802
rwrist 16.1494
rhand -18.3515 -20.5173
rfingers 7.12502
rthumb 7.93113 -50.3486
lclavicle 5.96354e-016 -4.77083e-015
lhumerus -46.5739 3.93892 86.4842
lradius 46.9613
lwrist 29.7663
lhand -32.2284 7.03759
lfingers 7.12502
lthumb -5.46929 36.947
rfemur 2.59326 -11.4715 12.5044
rtibia -9.54166e-015
rfoot -4.94987 -12.0041
rtoes -0.768007
lfemur -13.717 -11.78 -16.0072
ltibia 24.2001
lfoot -19.7107 12.7373
ltoes -28.6576
